<svg width="36" height="36" viewBox="0 0 36 36" fill="none" xmlns="http://www.w3.org/2000/svg">
<path fill-rule="evenodd" clip-rule="evenodd" d="M21.7785 8.88837C20.8013 8.84254 20.4906 8.83337 18 8.83337C15.5094 8.83337 15.1986 8.84529 14.2215 8.88837C13.2443 8.93421 12.5806 9.08729 11.9958 9.31462C11.3839 9.54446 10.8295 9.90517 10.3715 10.3715C9.90472 10.8293 9.54395 11.3837 9.31456 11.9959C9.08723 12.5807 8.93415 13.2444 8.88831 14.2215C8.84248 15.1987 8.83331 15.5095 8.83331 18C8.83331 20.4906 8.84523 20.8014 8.88831 21.7785C8.93415 22.7548 9.08723 23.4203 9.31456 24.0042C9.54458 24.6161 9.90527 25.1704 10.3715 25.6285C10.8294 26.0951 11.3838 26.4558 11.9958 26.6855C12.5806 26.9119 13.2452 27.0659 14.2215 27.1117C15.1986 27.1575 15.5094 27.1667 18 27.1667C20.4906 27.1667 20.8013 27.1548 21.7785 27.1117C22.7547 27.0659 23.4202 26.9119 24.0041 26.6855C24.6158 26.4551 25.1701 26.0945 25.6285 25.6285C26.0952 25.1708 26.4559 24.6163 26.6854 24.0042C26.9118 23.4194 27.0658 22.7548 27.1116 21.7785C27.1575 20.8014 27.1666 20.4906 27.1666 18C27.1666 15.5095 27.1547 15.1987 27.1116 14.2215C27.0658 13.2453 26.9118 12.5798 26.6854 11.9959C26.4553 11.3841 26.0946 10.8298 25.6285 10.3715C25.1188 9.86279 24.6091 9.54746 24.0041 9.31462C23.4193 9.08729 22.7547 8.93421 21.7785 8.88837ZM13.4166 18C13.4166 15.4687 15.4687 13.4167 18 13.4167C20.5313 13.4167 22.5833 15.4687 22.5833 18C22.5833 20.5313 20.5313 22.5834 18 22.5834C15.4687 22.5834 13.4166 20.5313 13.4166 18ZM23.9583 13.1875C23.9583 12.5547 23.4453 12.0417 22.8125 12.0417C22.1797 12.0417 21.6666 12.5547 21.6666 13.1875C21.6666 13.8204 22.1797 14.3334 22.8125 14.3334C23.4453 14.3334 23.9583 13.8204 23.9583 13.1875ZM20.75 18C20.75 16.4813 19.5188 15.25 18 15.25C16.4812 15.25 15.25 16.4813 15.25 18C15.25 19.5188 16.4812 20.75 18 20.75C19.5188 20.75 20.75 19.5188 20.75 18Z" fill="#A4A4A4"/>
<rect x="0.5" y="0.5" width="35" height="35" rx="5.5" stroke="#2B2B2C"/>
</svg>
