<svg width="36" height="36" viewBox="0 0 36 36" fill="none" xmlns="http://www.w3.org/2000/svg">
<path fill-rule="evenodd" clip-rule="evenodd" d="M13.3617 11.5833C13.3612 12.5958 12.5399 13.4162 11.5274 13.4157C10.5149 13.4152 9.6945 12.594 9.69501 11.5814C9.69551 10.5689 10.5167 9.74852 11.5293 9.74902C12.5418 9.74953 13.3622 10.5708 13.3617 11.5833ZM13.4167 14.7733H9.75001V26.2499H13.4167V14.7733ZM15.5617 14.7733H19.21L19.1733 16.3133C20.695 13.5358 27.1667 13.3249 27.1667 18.9808V26.2499H23.5458V20.2274C23.5458 16.5608 19.1733 16.8724 19.1733 20.2274V26.2499H15.5617V14.7733Z" fill="#A4A4A4"/>
<rect x="0.5" y="0.5" width="35" height="35" rx="5.5" stroke="#2B2B2C"/>
</svg>
